<svg xmlns="http://www.w3.org/2000/svg" width="861" height="1218" viewBox="0 0 861 1218">
<g>
<path d="M 0.00 0.00 L 861.00 0.00 L 861.00 1218.00 L 0.00 1218.00 ZM 137.50 839.38 C144.15,839.94 158.99,838.95 167.99,837.35 C194.64,832.62 214.39,818.91 227.22,796.25 C229.66,791.94 230.68,791.00 232.90,791.00 C235.34,791.00 235.92,791.77 238.87,798.98 C244.26,812.17 253.51,822.74 264.50,828.28 C283.90,838.05 321.85,838.21 340.83,828.59 L 345.65 826.15 L 343.34 803.32 C342.07,790.77 340.68,778.47 340.25,776.00 L 339.46 771.50 L 335.48 771.77 C319.36,772.84 315.43,772.55 311.69,770.00 C310.43,769.15 309.40,768.58 308.55,767.81 C304.24,763.95 304.46,755.04 303.93,679.50 C303.37,600.45 303.30,598.26 301.13,588.61 C291.94,547.78 267.50,526.34 221.01,518.28 C207.43,515.93 169.32,515.97 155.51,518.36 C118.38,524.77 86.89,539.89 63.17,562.70 L 54.02 571.50 L 70.48 596.25 C85.08,618.20 87.24,621.00 89.58,621.00 C91.51,621.00 94.45,618.90 100.43,613.25 C127.50,587.65 163.79,575.23 197.50,580.04 C212.56,582.18 220.14,586.49 224.48,595.37 C229.86,606.36 228.56,620.05 221.40,627.98 C212.87,637.42 199.27,642.11 159.00,649.49 C128.17,655.15 109.57,660.65 92.96,669.01 C69.43,680.86 55.48,697.47 50.02,720.10 C44.43,743.26 47.15,771.12 57.00,791.58 C70.88,820.39 97.15,836.00 137.50,839.38 ZM 397.68 833.35 C398.05,833.72 415.49,833.91 436.43,833.76 L 474.50 833.50 L 474.76 767.69 L 475.01 701.89 L 479.08 702.19 L 483.15 702.50 L 581.71 833.50 L 663.50 833.50 L 663.80 829.95 C664.05,826.91 663.10,825.02 657.21,816.95 C653.43,811.75 627.08,775.64 598.66,736.69 C570.25,697.75 547.00,665.44 547.00,664.89 C547.00,664.08 610.27,581.81 644.18,538.52 C650.31,530.70 652.00,527.83 652.00,525.27 L 652.00 522.00 L 572.50 522.03 L 527.60 580.51 L 482.69 639.00 L 475.00 639.00 L 475.00 397.00 L 397.00 397.00 L 397.00 614.83 C397.00,734.64 397.31,832.97 397.68,833.35 ZM 183.50 779.49 C174.02,781.49 163.02,781.29 154.10,778.95 C141.61,775.68 133.23,769.03 128.30,758.50 C125.70,752.93 125.50,751.60 125.50,740.00 C125.50,728.58 125.73,727.01 128.14,721.88 C134.95,707.34 146.75,700.88 176.28,695.52 C195.18,692.08 206.90,688.66 216.04,683.92 C220.18,681.76 224.84,680.00 226.39,680.00 L 229.20 680.00 L 228.73 705.25 C228.36,724.91 227.88,731.83 226.55,736.50 C220.07,759.33 204.27,775.11 183.50,779.49 ZM 748.00 835.33 C749.38,835.55 754.26,835.79 758.86,835.86 C773.81,836.11 785.49,831.67 795.02,822.13 C816.77,800.35 811.61,760.99 785.27,747.64 C777.73,743.82 769.21,742.00 758.82,742.00 C742.93,742.00 730.74,746.47 721.52,755.70 C712.88,764.34 708.80,774.90 708.80,788.63 C708.80,806.13 715.90,819.60 729.71,828.32 C733.65,830.80 743.65,834.64 748.00,835.33 Z" fill="rgb(0,0,0)"/>
<path d="M 137.50 839.38 C97.15,836.00 70.88,820.39 57.00,791.58 C47.15,771.12 44.43,743.26 50.02,720.10 C55.48,697.47 69.43,680.86 92.96,669.01 C109.57,660.65 128.17,655.15 159.00,649.49 C199.27,642.11 212.87,637.42 221.40,627.98 C228.56,620.05 229.86,606.36 224.48,595.37 C220.14,586.49 212.56,582.18 197.50,580.04 C163.79,575.23 127.50,587.65 100.43,613.25 C94.45,618.90 91.51,621.00 89.58,621.00 C87.24,621.00 85.08,618.20 70.48,596.25 L 54.02 571.50 L 63.17 562.70 C86.89,539.89 118.38,524.77 155.51,518.36 C169.32,515.97 207.43,515.93 221.01,518.28 C267.50,526.34 291.94,547.78 301.13,588.61 C303.30,598.26 303.37,600.45 303.93,679.50 C304.57,770.02 304.12,764.86 311.69,770.00 C315.43,772.55 319.36,772.84 335.48,771.77 L 339.46 771.50 L 340.25 776.00 C340.68,778.47 342.07,790.77 343.34,803.32 L 345.65 826.15 L 340.83 828.59 C321.85,838.21 283.90,838.05 264.50,828.28 C253.51,822.74 244.26,812.17 238.87,798.98 C235.92,791.77 235.34,791.00 232.90,791.00 C230.68,791.00 229.66,791.94 227.22,796.25 C214.39,818.91 194.64,832.62 167.99,837.35 C158.99,838.95 144.15,839.94 137.50,839.38 ZM 183.50 779.49 C204.27,775.11 220.07,759.33 226.55,736.50 C227.88,731.83 228.36,724.91 228.73,705.25 L 229.20 680.00 L 226.39 680.00 C224.84,680.00 220.18,681.76 216.04,683.92 C206.90,688.66 195.18,692.08 176.28,695.52 C146.75,700.88 134.95,707.34 128.14,721.88 C125.73,727.01 125.50,728.58 125.50,740.00 C125.50,751.60 125.70,752.93 128.30,758.50 C133.23,769.03 141.61,775.68 154.10,778.95 C163.02,781.29 174.02,781.49 183.50,779.49 ZM 748.00 835.33 C743.65,834.64 733.65,830.80 729.71,828.32 C715.90,819.60 708.80,806.13 708.80,788.63 C708.80,774.90 712.88,764.34 721.52,755.70 C730.74,746.47 742.93,742.00 758.82,742.00 C769.21,742.00 777.73,743.82 785.27,747.64 C811.61,760.99 816.77,800.35 795.02,822.13 C785.49,831.67 773.81,836.11 758.86,835.86 C754.26,835.79 749.38,835.55 748.00,835.33 ZM 397.68 833.35 C397.31,832.97 397.00,734.64 397.00,614.83 L 397.00 397.00 L 436.00 397.00 L 475.00 397.00 L 475.00 518.00 L 475.00 639.00 L 478.85 639.00 L 482.69 639.00 L 527.60 580.51 L 572.50 522.03 L 612.25 522.01 L 652.00 522.00 L 652.00 525.27 C652.00,527.83 650.31,530.70 644.18,538.52 C610.27,581.81 547.00,664.08 547.00,664.89 C547.00,665.44 570.25,697.75 598.66,736.69 C627.08,775.64 653.43,811.75 657.21,816.95 C663.10,825.02 664.05,826.91 663.80,829.95 L 663.50 833.50 L 622.61 833.50 L 581.71 833.50 L 532.43 768.00 L 483.15 702.50 L 479.08 702.19 L 475.01 701.89 L 474.76 767.69 L 474.50 833.50 L 436.43 833.76 C415.49,833.91 398.05,833.72 397.68,833.35 Z" fill="rgb(254,254,254)"/>
</g>
</svg>